<?xml version="1.0" encoding="utf-8"?>
<!-- Generator: Adobe Illustrator 24.3.0, SVG Export Plug-In . SVG Version: 6.00 Build 0)  -->
<svg version="1.1" id="Layer_1" xmlns="http://www.w3.org/2000/svg" xmlns:xlink="http://www.w3.org/1999/xlink" x="0px" y="0px"
	 viewBox="0 0 1080 1080" style="enable-background:new 0 0 1080 1080;" xml:space="preserve">
<style type="text/css">
	.st0{fill:none;stroke:#000000;stroke-width:145.2084;stroke-linejoin:round;stroke-miterlimit:10;}
	.st1{fill:none;stroke:#FFFFFF;stroke-width:54.4532;stroke-miterlimit:10;}
	.st2{stroke:#000000;stroke-width:14.5208;stroke-miterlimit:10;}
	.st3{stroke:#000000;stroke-width:18.1511;stroke-miterlimit:10;}
	.st4{stroke:#FFFFFF;stroke-width:54.4532;stroke-miterlimit:10;}
	.st5{fill:#FFFFFF;}
</style>
<g id="logo_2_">
	<path class="st0" d="M288.6,190.9c0,0,219.6,142.9,249.2,214.3 M782.6,135.1c0,0-164.9,202.9-172.8,279.8 M269,154.7
		c-10.5,0-18.9,8.5-18.9,18.9s8.5,18.9,18.9,18.9c10.5,0,18.9-8.5,18.9-18.9S279.5,154.7,269,154.7z M800.9,92.6
		c-10.5,0-18.9,8.5-18.9,18.9s8.5,18.9,18.9,18.9s18.9-8.5,18.9-18.9S811.4,92.6,800.9,92.6z M541.1,403.8
		c-29.7-71.6-256.6-222.2-266.2-228.6l-4,6.1c2.3,1.5,234.6,155.7,263.5,225.3L541.1,403.8z M794.1,125.6l-5.6-4.6
		c-7.1,8.8-174.4,216.3-182.3,293.5l7.2,0.7C621.1,340.3,792.4,127.8,794.1,125.6z M269,154.7c-10.5,0-18.9,8.5-18.9,18.9
		s8.5,18.9,18.9,18.9c10.5,0,18.9-8.5,18.9-18.9S279.5,154.7,269,154.7z M800.9,92.6c-10.5,0-18.9,8.5-18.9,18.9s8.5,18.9,18.9,18.9
		s18.9-8.5,18.9-18.9S811.4,92.6,800.9,92.6z M798.2,530.1c-9.8-5-19.5-9.6-29.1-14l-25.7,30l-55.6,65l0.1,0.1l-27,31.6l-10.2-64.3
		l-30.1,35.1l-7.2,8.4l-91.2,106.6v0L476.5,782l-30.4,35.5c15.3,10.6,29.7,19.2,43.2,25.7l12.5-14.6l40.3-47.1l3.2-3.7l51.8-60.6
		l-0.1-0.1l26.8-31.3l0,0.2l10.4,63.8l36.8-43l117-136.7l24.9-29.1C808.7,536.6,803.7,532.9,798.2,530.1z M522.3,833.3l87.9-96.7
		l9.8,52.8L829,555.9l-4.9-5.9L626.8,768.9l-10.7-53.7l-95.3,104L522.3,833.3z M798.2,530.1c-9.8-5-19.5-9.6-29.1-14l-25.7,30
		l-55.6,65l0.1,0.1l-27,31.6l-10.2-64.3l-30.1,35.1l-7.2,8.4l-91.2,106.6v0L476.5,782l-30.4,35.5c15.3,10.6,29.7,19.2,43.2,25.7
		l12.5-14.6l40.3-47.1l3.2-3.7l51.8-60.6l-0.1-0.1l26.8-31.3l0,0.2l10.4,63.8l36.8-43l117-136.7l24.9-29.1
		C808.7,536.6,803.7,532.9,798.2,530.1z M522.3,833.3l87.9-96.7l9.8,52.8L829,555.9l-4.9-5.9L626.8,768.9l-10.7-53.7l-95.3,104
		L522.3,833.3z M487.3,864.9l-5.9-24.9l-0.1-0.4c-9.8-18.3-18.3-37.3-25.5-56.8c0,0,0,0,0,0c-0.2-0.4-0.4-0.9-0.5-1.4
		c-2.7-7.3-5.1-14.6-7.4-22c-16.7-53.7-24.5-111.2-26-171.5L371,372.2l-0.1-0.7c0,0,0,0-0.1,0c-0.6,0-2,0.3-4,0.7
		c-0.1,0-0.1,0-0.3,0.1c-1.4,0.4-3.1,0.8-5.1,1.5c-0.1,0-0.2,0-0.3,0.1c-28.7,8.6-114.7,43-204.2,127.9
		c-17.5,16.7-26.9,40.2-24.8,64.3l14,161.2c1.6,18.3,9.6,35.5,22.5,48.5c62.4,63.1,118,111,167.6,145c24.1,16.5,46.7,29.8,68,40
		c31.1,14.8,59.4,23.1,85.1,25.3c3.6,0.3,7.2,0.5,10.6,0.5c5.4,0.1,10.7-0.1,15.9-0.5L487.3,864.9z M935.1,832.2
		c-2.1,13.9-10.4,26.1-22.5,33.1c-109.7,63.6-243.5,102.3-396.5,121.4c-5.3,0.7-10.7,0.8-15.9,0.5c-3.7-0.2-7.3-0.6-10.9-1.2
		c-23.5-4-44.8-17.1-58.6-37.4c-2.4-3.5-4.7-7-6.9-10.5c-15.2-23.3-28.4-47.5-39.8-72.5c-60-130.9-71.3-282.8-58.6-445.1
		c1.7-21.5,16.1-39.3,35.9-46.1c0.1,0,0.2-0.1,0.3-0.1c2-0.6,3.7-1.1,5.1-1.5c0.1,0,0.2,0,0.3-0.1c1.3-0.3,2.7-0.5,4-0.7
		c0,0,0,0,0.1,0c44.2-6.3,89.6-8.5,136.4-6.2c39.4,1.9,79.7,6.9,121,15.4c69,14,140.9,37.4,215.9,71.3c15.1,6.8,30.4,14.1,45.8,21.8
		c8.7,4.4,16.6,10.1,23.2,16.9c11.6,11.8,19.7,26.9,23,43.5C954.8,626.6,951.5,726.9,935.1,832.2z M891,568.5
		c-2.5-12.1-8.3-23.2-16.8-31.9c-5.2-5.5-11.4-10.1-18.4-13.5c-17.5-8.6-34.8-16.6-51.8-23.7c-125.3-52.9-239-68-343.7-53.3
		c-18.8,2.6-33.3,17.7-34.8,36.4c-2.9,36.1-4.1,71.6-3.3,106.1c1.3,52.5,7.3,102.8,19.9,150.5c1.8,6.8,3.8,13.6,5.8,20.3
		c2.3,7.4,4.8,14.8,7.4,22c0.1,0.5,0.3,0.9,0.5,1.4v0c0.9,2.5,1.8,4.9,2.8,7.3c6.6,17.1,14.2,33.7,22.8,49.9c0,0.1,0.1,0.1,0.1,0.2
		c3.4,6.4,7,12.7,10.7,18.9c4.2,7,8.7,14,13.4,20.8c14.4,20.9,39.6,31.8,65.1,28.6c116.5-14.4,218.5-43.6,302.1-91.4
		c9.2-5.3,15.5-14.5,17.1-24.9C902.5,713,905.1,637.5,891,568.5z M487.3,864.9l-5.9-24.9l-0.1-0.4c-9.8-18.3-18.3-37.3-25.5-56.8
		c0,0,0,0,0,0c-0.2-0.4-0.4-0.9-0.5-1.4c-2.7-7.3-5.1-14.6-7.4-22c-16.7-53.7-24.5-111.2-26-171.5L371,372.2l-0.1-0.7c0,0,0,0-0.1,0
		c-0.6,0-2,0.3-4,0.7c-0.1,0-0.1,0-0.3,0.1c-1.4,0.4-3.1,0.8-5.1,1.5c-0.1,0-0.2,0-0.3,0.1c-28.7,8.6-114.7,43-204.2,127.9
		c-17.5,16.7-26.9,40.2-24.8,64.3l14,161.2c1.6,18.3,9.6,35.5,22.5,48.5c62.4,63.1,118,111,167.6,145c24.1,16.5,46.7,29.8,68,40
		c31.1,14.8,59.4,23.1,85.1,25.3c3.6,0.3,7.2,0.5,10.6,0.5c5.4,0.1,10.7-0.1,15.9-0.5L487.3,864.9z M239.8,765
		c21.8,5.6,47.4,15,79.6,31.3c-34.1-72.6-42.6-164.6-38.1-266.1c-23,12.7-43.9,25.4-61.7,31 M935.1,832.2
		c-2.1,13.9-10.4,26.1-22.5,33.1c-109.7,63.6-243.5,102.3-396.5,121.4c-5.3,0.7-10.7,0.8-15.9,0.5c-3.7-0.2-7.3-0.6-10.9-1.2
		c-23.5-4-44.8-17.1-58.6-37.4c-2.4-3.5-4.7-7-6.9-10.5c-15.2-23.3-28.4-47.5-39.8-72.5c-60-130.9-71.3-282.8-58.6-445.1
		c1.7-21.5,16.1-39.3,35.9-46.1c0.1,0,0.2-0.1,0.3-0.1c2-0.6,3.7-1.1,5.1-1.5c0.1,0,0.2,0,0.3-0.1c1.3-0.3,2.7-0.5,4-0.7
		c0,0,0,0,0.1,0c44.2-6.3,89.6-8.5,136.4-6.2c39.4,1.9,79.7,6.9,121,15.4c69,14,140.9,37.4,215.9,71.3c15.1,6.8,30.4,14.1,45.8,21.8
		c8.7,4.4,16.6,10.1,23.2,16.9c11.6,11.8,19.7,26.9,23,43.5C954.8,626.6,951.5,726.9,935.1,832.2z M891,568.5
		c-2.5-12.1-8.3-23.2-16.8-31.9c-5.2-5.5-11.4-10.1-18.4-13.5c-17.5-8.6-34.8-16.6-51.8-23.7c-125.3-52.9-239-68-343.7-53.3
		c-18.8,2.6-33.3,17.7-34.8,36.4c-2.9,36.1-4.1,71.6-3.3,106.1c1.3,52.5,7.3,102.8,19.9,150.5c1.8,6.8,3.8,13.6,5.8,20.3
		c2.3,7.4,4.8,14.8,7.4,22c0.1,0.5,0.3,0.9,0.5,1.4v0c0.9,2.5,1.8,4.9,2.8,7.3c6.6,17.1,14.2,33.7,22.8,49.9c0,0.1,0.1,0.1,0.1,0.2
		c3.4,6.4,7,12.7,10.7,18.9c4.2,7,8.7,14,13.4,20.8c14.4,20.9,39.6,31.8,65.1,28.6c116.5-14.4,218.5-43.6,302.1-91.4
		c9.2-5.3,15.5-14.5,17.1-24.9C902.5,713,905.1,637.5,891,568.5z"/>
	<path d="M239,454l339.8-47.4l321.8,99.7l40.1,286.6L802.9,917.8c0,0-257.9,65.9-272.4,67.1c-14.5,1.2-152.9-188.5-158.2-204.2
		C367,765,239,454,239,454z"/>
	<g>
		<g>
			<g>
				<path class="st1" d="M288.6,190.9c0,0,219.6,142.9,249.2,214.3"/>
				<path class="st1" d="M782.6,135.1c0,0-164.9,202.9-172.8,279.8"/>
				<circle class="st1" cx="269" cy="173.6" r="18.9"/>
				<circle class="st1" cx="800.9" cy="111.6" r="18.9"/>
			</g>
			<g>
				<path class="st2" d="M534.4,406.6C505.6,337,273.3,182.8,270.9,181.2l4-6.1c9.6,6.4,236.5,157,266.2,228.6L534.4,406.6z"/>
				<path class="st2" d="M613.4,415.3l-7.2-0.7c7.9-77.1,175.2-284.7,182.3-293.5l5.6,4.6C792.4,127.8,621.1,340.3,613.4,415.3z"/>
				<circle class="st3" cx="269" cy="173.6" r="18.9"/>
				<circle class="st3" cx="800.9" cy="111.6" r="18.9"/>
			</g>
		</g>
		<g>
			<g>
				<path class="st4" d="M812.9,541l-24.9,29.1l-117,136.7l-36.8,43L623.9,686l0-0.2L597,717.1l0.1,0.1l-51.8,60.6l-3.2,3.7
					l-40.3,47.1l-12.5,14.6c-13.5-6.5-27.9-15.1-43.2-25.7l30.4-35.5l45.6-53.3v0l91.2-106.6l7.2-8.4l30.1-35.1l10.2,64.3l27-31.6
					l-0.1-0.1l55.6-65l25.7-30c9.6,4.4,19.3,9.1,29.1,14C803.7,532.9,808.7,536.6,812.9,541z"/>
				<polygon class="st4" points="520.8,819.2 616.1,715.1 626.8,768.9 824.2,550 829,555.9 620,789.4 610.2,736.6 522.3,833.3 				
					"/>
			</g>
			<g>
				<path d="M820.8,531.2L671.1,706.8l-36.8,43L623.9,686l0-0.2L597,717.1l0.1,0.1l-51.8,60.6l-3.2,3.7l-40.3,47.1l-12.5,14.6
					c-13.5-6.5-27.9-15.1-43.2-25.7l30.4-35.5l45.6-53.3v0l91.2-106.6l7.2-8.4l30.1-35.1l10.2,64.3l27-31.6l-0.1-0.1l89.1-104.8
					L820.8,531.2z"/>
			</g>
		</g>
		<g>
			<path class="st1" d="M515.9,986c-5.2,0.5-10.5,0.7-15.9,0.5c-3.5-0.1-7-0.3-10.6-0.5c-25.7-2.1-54-10.4-85.1-25.3
				c-21.3-10.2-43.9-23.5-68-40c-49.6-34.1-105.2-81.9-167.6-145c-12.9-13.1-20.9-30.2-22.5-48.5l-14-161.2
				c-2.1-24.1,7.3-47.6,24.8-64.3c89.5-84.9,175.5-119.3,204.2-127.9c0.1,0,0.2-0.1,0.3-0.1c2-0.6,3.7-1.1,5.1-1.5
				c0.1,0,0.2,0,0.3-0.1c2.1-0.5,3.4-0.7,4-0.7c0,0,0,0,0.1,0l0.1,0.7L422,588c1.5,60.2,9.3,117.7,26,171.5c2.3,7.4,4.8,14.8,7.4,22
				c0.1,0.5,0.3,0.9,0.5,1.4c0,0,0,0,0,0c7.2,19.5,15.6,38.4,25.5,56.8l0.1,0.4l5.9,24.9L515.9,986z"/>
			<path class="st4" d="M936.4,534.9c-3.3-16.6-11.4-31.7-23-43.5c-6.6-6.8-14.5-12.6-23.2-16.9c-15.4-7.7-30.7-15-45.8-21.8
				c-75-33.9-146.9-57.3-215.9-71.3c-41.3-8.5-81.6-13.5-121-15.4c-46.8-2.3-92.2-0.1-136.4,6.2c0,0,0,0-0.1,0
				c-1.3,0.2-2.7,0.4-4,0.7c-0.1,0-0.1,0-0.3,0.1c-1.4,0.4-3.1,0.8-5.1,1.5c-0.1,0-0.2,0-0.3,0.1c-19.8,6.8-34.2,24.6-35.9,46.1
				c-12.7,162.2-1.3,314.1,58.6,445.1c11.4,25,24.6,49.2,39.8,72.5c2.3,3.5,4.6,7,6.9,10.5c13.8,20.3,35.1,33.4,58.6,37.4
				c3.6,0.6,7.2,1,10.9,1.2c5.3,0.3,10.6,0.1,15.9-0.5c153-19.1,286.8-57.9,396.5-121.4c12.1-7,20.4-19.2,22.5-33.1
				C951.5,726.9,954.8,626.6,936.4,534.9z M890,792.3c-1.6,10.4-7.9,19.6-17.1,24.9c-83.6,47.9-185.6,77.1-302.1,91.4
				c-25.4,3.1-50.6-7.7-65.1-28.6c-4.7-6.9-9.2-13.8-13.4-20.8c-3.8-6.2-7.3-12.5-10.7-18.9c0-0.1-0.1-0.1-0.1-0.2
				c-8.7-16.2-16.3-32.8-22.8-49.9c-0.9-2.4-1.9-4.9-2.8-7.3v0c-0.2-0.4-0.4-0.9-0.5-1.4c-2.7-7.3-5.1-14.6-7.4-22
				c-2.1-6.7-4-13.5-5.8-20.3c-12.6-47.6-18.6-98-19.9-150.5c-0.8-34.6,0.4-70,3.3-106.1c1.5-18.7,16-33.8,34.8-36.4
				c104.7-14.7,218.4,0.3,343.7,53.3c17.1,7.2,34.3,15.1,51.8,23.7c7,3.4,13.2,8.1,18.4,13.5c8.4,8.8,14.3,19.8,16.8,31.9
				C905.1,637.5,902.5,713,890,792.3z"/>
		</g>
		<path d="M515.9,986c-5.2,0.5-10.5,0.7-15.9,0.5c-3.5-0.1-7-0.3-10.6-0.5c-25.7-2.1-54-10.4-85.1-25.3c-21.3-10.2-43.9-23.5-68-40
			c-49.6-34.1-105.2-81.9-167.6-145c-12.9-13.1-20.9-30.2-22.5-48.5l-14-161.2c-2.1-24.1,7.3-47.6,24.8-64.3
			c89.5-84.9,175.5-119.3,204.2-127.9c0.1,0,0.2-0.1,0.3-0.1c2-0.6,3.7-1.1,5.1-1.5c0.1,0,0.2,0,0.3-0.1c2.1-0.5,3.4-0.7,4-0.7
			c0,0,0,0,0.1,0l0.1,0.7L422,588c1.5,60.2,9.3,117.7,26,171.5c2.3,7.4,4.8,14.8,7.4,22c0.1,0.5,0.3,0.9,0.5,1.4c0,0,0,0,0,0
			c7.2,19.5,15.6,38.4,25.5,56.8l0.1,0.4l5.9,24.9L515.9,986z"/>
		<g>
			<path class="st5" d="M239.8,765c7.1,1.2,14.1,2.7,21.1,4.5c7,1.8,13.9,3.9,20.7,6.2c6.8,2.3,13.6,4.8,20.3,7.6
				c6.7,2.7,13.3,5.6,19.8,8.6l-6.8,6.6c-10.5-20.5-18.5-42.2-24.5-64.4l-2.2-8.3c-0.7-2.8-1.3-5.6-1.9-8.4l-1.9-8.4
				c-0.6-2.8-1.1-5.6-1.6-8.4l-1.5-8.5l-1.3-8.5l-1.3-8.5l-1-8.5c-2.6-22.7-3.7-45.6-3.8-68.4c0-22.8,1-45.5,3-68.2l6.4,4l-15.5,7.7
				c-5.2,2.6-10.4,5.1-15.6,7.5c-5.3,2.5-10.6,4.7-16,6.8c-2.7,1.1-5.5,2-8.2,2.9c-2.8,0.9-5.6,1.6-8.4,2.3c2.7-1.2,5.3-2.3,7.8-3.6
				c1.3-0.6,2.6-1.3,3.8-2c1.3-0.7,2.5-1.3,3.8-2c5-2.8,9.9-5.8,14.8-8.8c9.8-6.1,19.5-12.3,29.3-18.3l6.4-3.9l0,7.9
				c0,22.6,0.4,45.1,1.3,67.5c0.9,22.4,2.6,44.8,5.2,67l1,8.3l1.2,8.3l1.2,8.3l1.4,8.2c0.5,2.7,0.9,5.5,1.4,8.2l1.7,8.2
				c0.6,2.7,1.1,5.5,1.7,8.2l1.9,8.1c5.1,21.7,11.8,42.9,20.4,63.5l5.7,13.6l-12.5-7c-6.2-3.5-12.4-6.8-18.7-10.1
				c-6.3-3.3-12.7-6.4-19.1-9.4c-6.4-3-12.9-5.9-19.5-8.6C253.2,769.9,246.5,767.4,239.8,765z"/>
		</g>
		<g>
			<path d="M936.4,534.9c-3.3-16.6-11.4-31.7-23-43.5c-6.6-6.8-14.5-12.6-23.2-16.9c-15.4-7.7-30.7-15-45.8-21.8
				c-75-33.9-146.9-57.3-215.9-71.3c-41.3-8.5-81.6-13.5-121-15.4c-46.8-2.3-92.2-0.1-136.4,6.2c0,0,0,0-0.1,0
				c-1.3,0.2-2.7,0.4-4,0.7c-0.1,0-0.1,0-0.3,0.1c-1.4,0.4-3.1,0.8-5.1,1.5c-0.1,0-0.2,0-0.3,0.1c-19.8,6.8-34.2,24.6-35.9,46.1
				c-12.7,162.2-1.3,314.1,58.6,445.1c11.4,25,24.6,49.2,39.8,72.5c2.3,3.5,4.6,7,6.9,10.5c13.8,20.3,35.1,33.4,58.6,37.4
				c3.6,0.6,7.2,1,10.9,1.2c5.3,0.3,10.6,0.1,15.9-0.5c153-19.1,286.8-57.9,396.5-121.4c12.1-7,20.4-19.2,22.5-33.1
				C951.5,726.9,954.8,626.6,936.4,534.9z M890,792.3c-1.6,10.4-7.9,19.6-17.1,24.9c-83.6,47.9-185.6,77.1-302.1,91.4
				c-25.4,3.1-50.6-7.7-65.1-28.6c-4.7-6.9-9.2-13.8-13.4-20.8c-3.8-6.2-7.3-12.5-10.7-18.9c0-0.1-0.1-0.1-0.1-0.2
				c-8.7-16.2-16.3-32.8-22.8-49.9c-0.9-2.4-1.9-4.9-2.8-7.3v0c-0.2-0.4-0.4-0.9-0.5-1.4c-2.7-7.3-5.1-14.6-7.4-22
				c-2.1-6.7-4-13.5-5.8-20.3c-12.6-47.6-18.6-98-19.9-150.5c-0.8-34.6,0.4-70,3.3-106.1c1.5-18.7,16-33.8,34.8-36.4
				c104.7-14.7,218.4,0.3,343.7,53.3c17.1,7.2,34.3,15.1,51.8,23.7c7,3.4,13.2,8.1,18.4,13.5c8.4,8.8,14.3,19.8,16.8,31.9
				C905.1,637.5,902.5,713,890,792.3z"/>
			<g>
				<g>
					<path class="st5" d="M936.4,534.9c-2.5-12.6-7.9-24.6-15.6-34.8c-1.9-2.6-4-5-6.2-7.4c-2.2-2.3-4.5-4.6-7-6.6
						c-4.9-4.2-10.2-7.8-15.9-10.7c-23-11.5-46.3-22.2-70-32.2c-47.3-20-95.9-36.8-145.7-49.3c-24.9-6.2-50-11.5-75.3-15.5
						c-12.6-2-25.3-3.8-38.1-5.1c-12.7-1.4-25.5-2.5-38.2-3.2c-25.5-1.5-51.1-1.7-76.6-0.6c-25.5,1.1-51,3.6-76.2,7.5l-0.3,0l-0.4,0
						l-0.1,0l0.7-0.1l-3.8,0.7l1.1-0.4c-0.2,0.1-0.4,0.2-0.7,0.3l-0.4,0.1l-0.3,0.1l-0.7,0.2l-1.3,0.4l-2.6,0.8l-1.4,0.2
						c0.4,0,1-0.1,1.2-0.2l-0.3,0.1l-0.6,0.2l-1.2,0.5l-1.2,0.5l-1.2,0.6c-0.8,0.4-1.6,0.7-2.3,1.2l-2.3,1.3
						c-2.9,1.9-5.7,3.9-8.2,6.3c-2.5,2.4-4.8,5-6.7,7.9c-1.9,2.9-3.6,5.9-4.8,9.1c-0.3,0.8-0.6,1.6-0.9,2.4l-0.4,1.2
						c-0.1,0.4-0.2,0.8-0.3,1.2c-0.2,0.8-0.5,1.7-0.6,2.5l-0.5,2.5c-0.2,0.8-0.2,1.7-0.3,2.6c-0.1,0.9-0.2,1.7-0.2,2.6l-0.3,5.7
						l-1.4,22.8c-0.6,15.2-1.4,30.4-1.5,45.6c-0.4,15.2-0.3,30.4-0.2,45.6c0.5,30.4,2,60.8,5,91c2.7,30.2,7.4,60.2,13.5,89.9
						l2.3,11.1c0.4,1.9,0.8,3.7,1.3,5.5l1.3,5.5l2.7,11l1.3,5.5c0.5,1.8,1,3.6,1.5,5.5l6.3,21.8l7.1,21.5c1.1,3.6,2.6,7.1,3.9,10.6
						l4,10.6c2.5,7.1,5.7,14,8.6,20.9l4.4,10.4c1.6,3.4,3.2,6.9,4.8,10.3c3.3,6.8,6.6,13.6,10.2,20.2c7,13.4,14.6,26.4,22.7,39.2
						c2,3.2,4.1,6.3,6.2,9.5c1,1.6,2.1,3.2,3.1,4.6c0.5,0.7,1,1.4,1.5,2.1l1.6,2.1c4.4,5.5,9.6,10.4,15.3,14.6
						c5.7,4.2,12,7.6,18.6,10.2c6.6,2.6,13.6,4.3,20.6,5.2c3.5,0.4,7.1,0.6,10.7,0.6c1.8,0,3.6-0.1,5.3-0.2c0.9-0.1,1.8-0.1,2.7-0.2
						c0.9-0.1,1.7-0.2,2.7-0.3l22.7-2.8c60.4-8,120.4-19.2,179-35.6c29.3-8.2,58.3-17.5,86.8-28.4c7.1-2.8,14.2-5.5,21.2-8.4l21-9
						l20.7-9.6c6.8-3.3,13.6-6.8,20.4-10.3l2.6-1.3l2.5-1.4l5-2.7l10-5.5c1.7-0.9,3.4-1.8,4.9-2.8c0.8-0.5,1.5-1,2.3-1.5
						c0.7-0.5,1.5-1.1,2.2-1.7c2.8-2.3,5.4-5,7.6-8c4.4-5.9,7.3-13,8.4-20.4l1.8-11.3c0.6-3.8,1.2-7.5,1.7-11.3
						c4.3-30.2,7.7-60.6,9.5-91.1c1.9-30.5,2.1-61.1,0.6-91.6c-0.1-1.9-0.2-3.8-0.3-5.7l-0.4-5.7c-0.3-3.8-0.5-7.6-0.9-11.4
						c-0.8-7.6-1.4-15.2-2.4-22.8c-0.5-3.8-0.9-7.6-1.4-11.4l-1.7-11.3l-0.9-5.7l-1-5.6L936.4,534.9z M936.4,534.9
						c5.9,30,9.6,60.4,11.4,90.9c0.3,7.6,0.8,15.3,1,22.9l0.3,11.5l0,11.5c0,3.8,0,7.6-0.1,11.5l-0.2,11.5c0,3.8-0.3,7.6-0.4,11.5
						c-0.2,3.8-0.3,7.6-0.5,11.5c-1.6,30.5-4.4,61-8.4,91.4c-1,7.6-2.1,15.2-3.1,22.7c-1,7.8-3.9,15.3-8.5,21.7
						c-2.3,3.2-5,6.2-8,8.7c-0.8,0.6-1.5,1.3-2.3,1.8c-0.8,0.6-1.6,1.2-2.4,1.7c-1.7,1.1-3.3,2-5,3l-10,5.7l-5,2.8l-2.5,1.4
						l-2.5,1.3c-53.8,29.4-111.2,52.1-169.9,69.9l-11,3.3l-2.8,0.8l-2.8,0.8l-5.5,1.5l-11.1,3.1l-5.5,1.5c-1.9,0.5-3.7,0.9-5.6,1.4
						l-22.3,5.6l-22.4,5.1c-30,6.5-60.2,11.9-90.5,16.5l-22.8,3.3c-0.9,0.1-2,0.3-3,0.4c-1,0.1-2,0.2-3,0.3c-2,0.2-4.1,0.3-6.1,0.3
						c-4.1,0.1-8.1-0.1-12.2-0.6c-8.1-0.9-16.1-2.8-23.8-5.7c-7.6-2.9-15-6.7-21.7-11.5c-6.7-4.8-12.8-10.4-18-16.8l-1.9-2.4
						c-0.6-0.8-1.2-1.7-1.8-2.5c-1.3-1.7-2.3-3.3-3.4-4.9c-2.1-3.2-4.3-6.4-6.4-9.7c-8.4-12.9-16.3-26.3-23.6-39.9
						c-3.7-6.8-7.2-13.7-10.5-20.7c-1.7-3.5-3.3-7-5-10.5l-4.6-10.6c-3-7.1-6.3-14.1-8.9-21.4l-4.1-10.8c-1.3-3.6-2.8-7.2-4-10.9
						l-7.3-22c-2.2-7.4-4.3-14.8-6.4-22.3c-0.5-1.9-1.1-3.7-1.6-5.6l-1.4-5.6l-2.7-11.3l-1.4-5.6c-0.4-1.9-0.9-3.7-1.3-5.6
						l-2.3-11.3l-2.3-11.3l-0.6-2.8l-0.5-2.9l-0.9-5.7l-1.9-11.4c-0.6-3.8-1.3-7.6-1.7-11.4l-3-22.9c-0.8-7.7-1.5-15.3-2.3-23
						l-0.6-5.7c-0.2-1.9-0.3-3.8-0.4-5.8l-0.8-11.5l-0.8-11.5c-0.2-3.8-0.3-7.7-0.5-11.5l-0.4-11.5l-0.2-5.8
						c-0.1-1.9-0.1-3.8-0.1-5.8l-0.2-23.1c0-7.7,0.2-15.4,0.3-23c0-7.7,0.4-15.4,0.7-23c0.4-15.3,1.5-30.7,2.4-46l1.8-22.9l0.4-5.7
						c0.1-0.9,0.2-2,0.3-3.1c0.1-1,0.2-2.1,0.5-3.1l0.6-3.1c0.2-1,0.6-2,0.8-3c0.1-0.5,0.3-1,0.4-1.5l0.5-1.5c0.4-1,0.7-2,1.1-2.9
						c1.6-3.9,3.7-7.5,6.1-11c2.4-3.4,5.2-6.6,8.3-9.4c3.1-2.8,6.5-5.3,10.1-7.4l2.7-1.5c0.9-0.5,1.9-0.9,2.8-1.3l1.4-0.6l1.5-0.6
						l1.5-0.5l0.7-0.3l0.4-0.1c0.4-0.1,1.3-0.3,1.9-0.3l-1.4,0.2l2.7-0.7l1.4-0.4l0.7-0.2l0.3-0.1l0.1,0l-0.2,0.1
						c-0.1,0-0.2,0.1-0.3,0.2l1.1-0.4l4.3-0.7l0.4-0.1l0.4,0l0.1,0l-0.7,0c25.6-3.3,51.4-5.3,77.2-5.9c25.8-0.5,51.6,0.3,77.3,2.4
						c51.4,4.2,102.2,13.6,151.8,27.1c49.6,13.5,98.1,30.9,145.2,51.3c23.6,10.2,46.9,21,69.8,32.7c5.7,3,11,6.6,15.9,10.8
						c2.4,2.1,4.8,4.3,7,6.7c2.2,2.3,4.3,4.8,6.2,7.4C928.6,510.3,933.9,522.3,936.4,534.9z"/>
					<path class="st5" d="M890,792.3c-0.9,5.5-3,10.8-6.3,15.3c-3.3,4.5-7.6,8.2-12.6,10.7l-14.6,8l-14.8,7.6
						c-19.9,9.9-40.4,18.6-61.1,26.5l-7.8,3c-2.6,1-5.2,1.8-7.9,2.8l-7.9,2.7l-3.9,1.4l-4,1.3c-5.3,1.7-10.6,3.4-15.9,5.1l-16,4.7
						c-21.4,6-43,11.4-64.8,16l-16.4,3.3l-16.4,3c-5.5,1-11,1.9-16.5,2.8c-5.5,0.9-11,1.9-16.5,2.6c-5.5,0.8-11,1.7-16.6,2.4
						c-5.7,0.8-11.6,0.8-17.3,0.1c-11.5-1.3-22.8-5.4-32.5-11.9c-4.8-3.3-9.3-7.2-13.2-11.6l-1.5-1.7c-0.5-0.6-0.9-1.2-1.4-1.7
						c-0.9-1.2-1.8-2.4-2.6-3.5c-1.6-2.3-3.2-4.6-4.8-6.9c-3.1-4.6-6.2-9.4-9.1-14.1c-3-4.8-5.8-9.6-8.6-14.5
						c-11.1-19.5-20.6-40-28.6-61l-0.3-0.9l0-1l0,0l0.6,2.5c-0.2-0.5-0.4-1-0.6-1.4l-0.4-1.1l-0.7-1.9l-1.4-3.9
						c-0.9-2.6-1.9-5.2-2.8-7.9l-2.6-7.9l-2.4-8l-2.4-8l-1.2-4c-0.4-1.3-0.7-2.7-1.1-4c-1.4-5.4-2.8-10.7-4-16.1
						c-5.1-21.6-8.8-43.5-11.4-65.5c-2.7-22-4.1-44.1-4.8-66.2c-0.6-22.1-0.3-44.2,0.6-66.3c0.5-11,1.2-22,2-33l0.6-8.2
						c0.2-1.6,0.3-3.2,0.7-4.8c0.4-1.6,0.6-3.2,1.1-4.7c1.9-6.2,4.9-12.1,9.2-16.9c4.2-4.9,9.3-9,15.1-11.8c1.5-0.7,2.9-1.4,4.4-1.9
						l2.3-0.8c0.8-0.2,1.5-0.4,2.3-0.6c0.8-0.2,1.5-0.4,2.3-0.6l2.4-0.4l1.2-0.2l1-0.1l2.1-0.2l16.5-1.9l16.6-1.3l4.1-0.3l4.2-0.2
						l8.3-0.3c2.8-0.1,5.5-0.2,8.3-0.3l8.3,0c11.1-0.2,22.2,0.3,33.2,0.7l16.6,1.2l4.1,0.3l4.1,0.4l8.3,0.9l8.3,0.9l8.2,1.2l8.2,1.2
						c2.7,0.4,5.5,0.8,8.2,1.3l16.3,2.9c2.7,0.4,5.4,1.1,8.1,1.7l8.1,1.7l8.1,1.7l8,2c5.3,1.4,10.7,2.6,16,4.1
						c10.6,3.1,21.2,6,31.7,9.5l7.9,2.5l3.9,1.3l3.9,1.4l15.6,5.5c2.6,0.9,5.2,1.9,7.7,2.9l7.7,3c5.1,2,10.3,3.9,15.3,6.1
						c10.1,4.3,20.3,8.5,30.3,13.1c10,4.6,19.9,9.3,29.8,14.2l7.4,3.7c2.4,1.2,5,2.5,7.4,4c4.8,2.9,9.3,6.5,13.2,10.5
						c7.9,8,13.7,18.1,16.7,28.9c0.8,2.7,1.3,5.5,1.7,8.2l1.4,8.1c0.5,2.7,0.8,5.4,1.3,8.1c0.4,2.7,0.8,5.4,1.2,8.2l1,8.2l0.5,4.1
						l0.4,4.1l0.7,8.2c0.2,2.7,0.4,5.5,0.5,8.2c0.8,11,1,21.9,1.2,32.9c0.1,21.9-0.9,43.9-2.8,65.7
						C896.2,748.9,893.5,770.6,890,792.3z M890,792.3c6.7-43.3,10.8-87.1,10-131c-0.3-10.9-0.7-21.9-1.6-32.8
						c-0.2-2.7-0.4-5.5-0.7-8.2l-0.9-8.2l-0.4-4.1l-0.6-4.1l-1.1-8.1c-0.4-2.7-0.9-5.4-1.3-8.1l-0.7-4c-0.2-1.4-0.5-2.7-0.7-4
						l-1.6-8c-0.5-2.7-1.1-5.3-1.9-7.9c-3.1-10.3-8.9-19.7-16.5-27.1c-3.8-3.7-8.1-7-12.7-9.6c-2.3-1.3-4.7-2.4-7.2-3.6l-7.4-3.5
						c-9.9-4.6-19.9-9-30-13.3c-10.1-4.3-20.3-8.1-30.5-12.1c-5.1-2-10.3-3.8-15.4-5.6l-7.7-2.7c-2.6-0.9-5.1-1.8-7.7-2.7l-15.6-5
						l-3.9-1.3l-3.9-1.1l-7.9-2.3c-10.4-3.2-21-5.7-31.6-8.4c-5.3-1.3-10.6-2.4-15.9-3.6l-8-1.8l-8-1.5l-8-1.5
						c-2.7-0.5-5.3-1.1-8-1.4l-16.1-2.5c-21.5-3-43.2-4.9-64.9-5.7c-10.8-0.2-21.7-0.5-32.5-0.1l-8.1,0.2c-2.7,0.1-5.4,0.3-8.1,0.4
						l-8.1,0.4l-4.1,0.2l-4,0.4l-16.2,1.5l-16.1,2l-2,0.3l-1,0.1l-0.8,0.2l-1.7,0.3c-0.6,0.1-1.1,0.3-1.6,0.4
						c-0.5,0.2-1.1,0.3-1.6,0.5l-1.6,0.6c-1.1,0.3-2.1,0.9-3.1,1.4c-4.1,2-7.6,5-10.5,8.4c-2.9,3.4-5,7.5-6.3,11.8
						c-0.4,1.1-0.5,2.2-0.8,3.3c-0.2,1.1-0.3,2.2-0.5,3.3l-0.6,8.2c-0.8,10.9-1.4,21.7-1.9,32.6c-2,43.5-1.4,87.1,3.2,130.3
						c1.1,10.8,2.6,21.5,4.2,32.3c1.7,10.7,3.6,21.4,5.9,32c1.2,5.3,2.3,10.6,3.7,15.8c0.3,1.3,0.6,2.6,1,3.9l1.1,3.9l2.1,7.8
						l2.1,7.8l2.4,7.8c0.8,2.6,1.6,5.2,2.5,7.7l1.3,3.8l0.7,2l0.3,0.8c0.1,0.2,0.1,0.3,0.1,0.5l0.6,2.5l0,0L461,781
						c7.3,20.7,16.1,40.9,26.3,60.3c2.6,4.9,5.2,9.7,8,14.4c2.8,4.8,5.6,9.5,8.6,14.1c1.5,2.3,3,4.6,4.5,6.9
						c0.8,1.2,1.5,2.2,2.3,3.2c0.4,0.5,0.7,1.1,1.2,1.6l1.3,1.5c3.3,4,7.2,7.6,11.5,10.7c8.5,6.2,18.6,10.1,29.1,11.7
						c5.2,0.8,10.6,0.9,15.9,0.4c5.4-0.6,11-1.3,16.5-1.9c22-2.7,43.9-5.9,65.7-10c21.8-4.1,43.5-8.8,64.9-14.5
						c21.5-5.6,42.7-12.3,63.5-19.8c20.9-7.5,41.4-16.2,61.3-25.9l14.9-7.5l14.6-8c5-2.5,9.3-6.1,12.6-10.6
						C887,803.1,889.2,797.8,890,792.3z"/>
				</g>
			</g>
		</g>
	</g>
</g>
</svg>
